<svg width="70" height="70" viewBox="0 0 70 70" fill="none" xmlns="http://www.w3.org/2000/svg">
<circle cx="35" cy="35" r="35" fill="#E8C9FF"/>
<g clip-path="url(#clip0_706_394)">
<path d="M49.9769 25.2238C49.8493 23.7738 48.089 23.1281 47.0586 24.1587L45.5868 25.6305C45.2577 25.9595 44.7174 25.9649 44.3823 25.6424C44.0347 25.3078 44.0527 24.7313 44.3945 24.3896L45.8421 22.942C46.8715 21.9125 46.2286 20.1516 44.7773 20.0238C40.8328 19.6769 37.7042 23.3453 38.7503 27.2352L20.8321 45.1534C19.7226 46.2629 19.7224 48.0589 20.8321 49.1686C21.9391 50.2755 23.7402 50.2756 24.8472 49.1686L42.7608 31.255C46.6043 32.3 50.3274 29.2042 49.9769 25.2238Z" fill="#540F86"/>
<path d="M21.8747 26.8827C21.9167 26.9656 21.9716 27.0413 22.0373 27.107L24.5807 29.6504C24.924 29.9936 25.4804 29.9935 25.8236 29.6504L27.1171 28.3569L29.5873 30.8271L26.9464 33.4679C26.2621 34.1535 26.2626 35.2684 26.947 35.9534L27.2241 36.2305L36.2378 27.2174L35.9606 26.9403C35.2727 26.2536 34.1628 26.2526 33.474 26.9403L30.8301 29.5842L28.36 27.114L29.6534 25.8205C29.9967 25.4773 29.9967 24.9208 29.6534 24.5776L27.11 22.0342C27.0436 21.9677 26.967 21.9124 26.8831 21.8703L23.6322 20.2372C23.2935 20.067 22.8842 20.133 22.6162 20.401L20.3949 22.6223C20.1262 22.891 20.0606 23.3019 20.2324 23.6409L21.8747 26.8827Z" fill="#540F86"/>
<path d="M41.3823 35.1201L35.126 41.3765L42.311 48.5632C44.0394 50.2917 46.8378 50.2922 48.5667 48.5632C50.2917 46.8383 50.2917 44.0318 48.5667 42.3075L41.3823 35.1201ZM46.5307 46.5254C46.1897 46.8676 45.6318 46.8692 45.288 46.5254L40.2996 41.537C39.9562 41.1937 39.9562 40.6371 40.2996 40.2943C40.6429 39.9509 41.1995 39.9509 41.5423 40.2943L46.5307 45.2827C46.874 45.6261 46.874 46.1821 46.5307 46.5254Z" fill="#540F86"/>
</g>
<defs>
<clipPath id="clip0_706_394">
<rect width="30" height="30" fill="white" transform="translate(20 20)"/>
</clipPath>
</defs>
</svg>
