<svg width="70" height="70" viewBox="0 0 70 70" fill="none" xmlns="http://www.w3.org/2000/svg">
<circle cx="35" cy="35" r="35" fill="#FFD9C1"/>
<path d="M34.7651 50H32.4214C31.2582 50 30.312 49.0538 30.312 47.8906V33.3594C30.312 32.1962 31.2582 31.25 32.4214 31.25H34.7651C35.9283 31.25 36.8745 32.1962 36.8745 33.3594V47.8906C36.8745 49.0538 35.9282 50 34.7651 50Z" fill="#FF6502"/>
<path d="M25.8589 50H23.5151C22.352 50 21.4058 49.0538 21.4058 47.8906V38.0469C21.4058 36.8837 22.352 35.9375 23.5151 35.9375H25.8589C27.022 35.9375 27.9683 36.8837 27.9683 38.0469V47.8906C27.9683 49.0538 27.022 50 25.8589 50Z" fill="#FF6502"/>
<path d="M43.6716 50H41.3279C40.1647 50 39.2185 49.0538 39.2185 47.8906V28.4375H37.9306C37.3285 28.4375 36.7981 28.0977 36.5465 27.5506C36.2949 27.0036 36.382 26.3798 36.7739 25.9226C36.7784 25.9174 36.7829 25.9122 36.7875 25.9071L41.8015 20.3118C41.9794 20.1134 42.2333 20 42.4997 20C42.7662 20 43.0201 20.1134 43.198 20.3118L48.212 25.9071C48.2166 25.9122 48.2211 25.9174 48.2256 25.9226C48.6175 26.3797 48.7046 27.0036 48.453 27.5506C48.2014 28.0977 47.671 28.4375 47.0689 28.4375H45.781V47.8906C45.781 49.0538 44.8347 50 43.6716 50Z" fill="#FF6502"/>
</svg>
