<svg width="70" height="69" viewBox="0 0 70 69" fill="none" xmlns="http://www.w3.org/2000/svg">
<ellipse cx="35.3413" cy="34.4997" rx="34.6588" ry="33.5417" fill="#CCF0EB"/>
<g clip-path="url(#clip0_724_1352)">
<path d="M47.7193 26.1143H41.5303V24.9164C41.5303 23.595 40.42 22.5205 39.0546 22.5205H31.6277C30.2624 22.5205 29.1521 23.595 29.1521 24.9164V26.1143H22.9631C21.5977 26.1143 20.4874 27.1888 20.4874 28.5101V32.1039C20.4874 33.4253 21.5977 34.4997 22.9631 34.4997H32.8656V33.9008C32.8656 33.5697 33.1424 33.3018 33.4845 33.3018H37.198C37.5401 33.3018 37.8169 33.5697 37.8169 33.9008V34.4997H47.7194C49.0847 34.4997 50.195 33.4253 50.195 32.1039V28.5101C50.195 27.1888 49.0847 26.1143 47.7193 26.1143ZM39.0546 26.1143H31.6277V24.9164H39.0546V26.1143Z" fill="#19BDA5"/>
<path d="M49.8516 35.1463C49.6407 35.0451 49.3887 35.0685 49.2025 35.2053C48.7625 35.5277 48.2499 35.6978 47.7193 35.6978H37.8168V37.4947C37.8168 37.8258 37.54 38.0937 37.1979 38.0937H33.4845C33.1424 38.0937 32.8655 37.8258 32.8655 37.4947V35.6978H22.9631C22.4324 35.6978 21.9199 35.5277 21.4798 35.2053C21.2931 35.0673 21.0417 35.0439 20.8307 35.1463C20.6204 35.2475 20.4874 35.4551 20.4874 35.6827V44.0833C20.4874 45.4046 21.5977 46.4792 22.9631 46.4792H47.7194C49.0847 46.4792 50.195 45.4047 50.195 44.0833V35.6827C50.195 35.4551 50.062 35.2475 49.8516 35.1463Z" fill="#19BDA5"/>
</g>
<defs>
<clipPath id="clip0_724_1352">
<rect width="29.7075" height="28.75" fill="white" transform="translate(20.4874 20.125)"/>
</clipPath>
</defs>
</svg>
