<svg width="21" height="14" viewBox="0 0 21 14" fill="none" xmlns="http://www.w3.org/2000/svg">
<path fill-rule="evenodd" clip-rule="evenodd" d="M0 1.1891C0 0.87373 0.117532 0.571278 0.32674 0.348279C0.535948 0.12528 0.819695 0 1.11556 0H18.9645C19.2604 0 19.5441 0.12528 19.7533 0.348279C19.9625 0.571278 20.0801 0.87373 20.0801 1.1891C20.0801 1.50447 19.9625 1.80692 19.7533 2.02992C19.5441 2.25292 19.2604 2.3782 18.9645 2.3782H1.11556C0.819695 2.3782 0.535948 2.25292 0.32674 2.02992C0.117532 1.80692 0 1.50447 0 1.1891ZM2.23112 6.54004C2.23112 6.22467 2.34865 5.92222 2.55786 5.69922C2.76707 5.47622 3.05081 5.35094 3.34668 5.35094H16.7334C17.0293 5.35094 17.313 5.47622 17.5222 5.69922C17.7314 5.92222 17.849 6.22467 17.849 6.54004C17.849 6.85541 17.7314 7.15786 17.5222 7.38086C17.313 7.60386 17.0293 7.72914 16.7334 7.72914H3.34668C3.05081 7.72914 2.76707 7.60386 2.55786 7.38086C2.34865 7.15786 2.23112 6.85541 2.23112 6.54004ZM5.5778 11.891C5.5778 11.5756 5.69533 11.2732 5.90454 11.0502C6.11375 10.8272 6.39749 10.7019 6.69336 10.7019H13.3867C13.6826 10.7019 13.9663 10.8272 14.1755 11.0502C14.3847 11.2732 14.5023 11.5756 14.5023 11.891C14.5023 12.2063 14.3847 12.5088 14.1755 12.7318C13.9663 12.9548 13.6826 13.0801 13.3867 13.0801H6.69336C6.39749 13.0801 6.11375 12.9548 5.90454 12.7318C5.69533 12.5088 5.5778 12.2063 5.5778 11.891Z" fill="url(#paint0_linear_706_428)"/>
<defs>
<linearGradient id="paint0_linear_706_428" x1="0" y1="6.54004" x2="20.0801" y2="6.54004" gradientUnits="userSpaceOnUse">
<stop stop-color="#FF743C"/>
<stop offset="0.775" stop-color="#B73601"/>
</linearGradient>
</defs>
</svg>
