<svg width="24" height="24" viewBox="0 0 24 24" fill="none" xmlns="http://www.w3.org/2000/svg">
<path d="M12.0003 1.5C6.20139 1.5 1.50049 6.201 1.50049 12C1.50049 13.9128 2.01108 15.7038 2.90326 17.247C3.00526 17.4228 3.03105 17.6322 2.97526 17.8278L1.70568 22.293L6.16959 21.0234C6.26628 20.9959 6.36752 20.988 6.46729 21.0004C6.56707 21.0128 6.66333 21.0451 6.75037 21.0954C8.34565 22.0189 10.157 22.5035 12.0003 22.5C17.7991 22.5 22.5 17.799 22.5 12C22.5 6.201 17.7991 1.5 12.0003 1.5ZM0.000520392 12C0.000520392 5.3724 5.3728 0 12.0003 0C18.6277 0 24 5.3724 24 12C24 18.6276 18.6277 24 12.0003 24C9.93031 24 7.98155 23.4756 6.28058 22.5516L1.33849 23.9568C0.547109 24.1818 -0.183676 23.4504 0.0413194 22.6596L1.44649 17.7168C0.494128 15.9621 -0.003023 13.9965 0.000520392 12ZM7.20036 9.75C7.20036 9.336 7.53636 9 7.95035 9H16.0502C16.1487 9 16.2462 9.0194 16.3372 9.05709C16.4282 9.09478 16.5109 9.15003 16.5805 9.21967C16.6501 9.28931 16.7054 9.37199 16.7431 9.46299C16.7808 9.55398 16.8002 9.65151 16.8002 9.75C16.8002 9.84849 16.7808 9.94602 16.7431 10.037C16.7054 10.128 16.6501 10.2107 16.5805 10.2803C16.5109 10.35 16.4282 10.4052 16.3372 10.4429C16.2462 10.4806 16.1487 10.5 16.0502 10.5H7.95035C7.53636 10.5 7.20036 10.164 7.20036 9.75ZM7.95035 13.5C7.75144 13.5 7.56068 13.579 7.42003 13.7197C7.27938 13.8603 7.20036 14.0511 7.20036 14.25C7.20036 14.4489 7.27938 14.6397 7.42003 14.7803C7.56068 14.921 7.75144 15 7.95035 15H13.6502C13.8491 15 14.0399 14.921 14.1805 14.7803C14.3212 14.6397 14.4002 14.4489 14.4002 14.25C14.4002 14.0511 14.3212 13.8603 14.1805 13.7197C14.0399 13.579 13.8491 13.5 13.6502 13.5H7.95035Z" fill="#FF811A"/>
</svg>
