<svg width="21" height="13" viewBox="0 0 21 13" fill="none" xmlns="http://www.w3.org/2000/svg">
<path d="M18.6361 0.0625071C19.4437 -0.170389 20.2884 0.331784 19.9075 0.818356L11.3801 11.7068C10.9992 12.193 9.81339 12.1268 9.59454 11.6072L7.8126 7.37672L0.745097 6.34438C-0.122408 6.2175 -0.242505 5.5066 0.564213 5.27378L18.6361 0.0625071ZM3.67571 5.81843L8.56541 6.5828C8.89649 6.63458 9.15618 6.79905 9.23991 7.01087L10.4737 10.1409L16.5453 1.85378L3.67571 5.81843Z" fill="white"/>
<mask id="mask0_894_632" style="mask-type:luminance" maskUnits="userSpaceOnUse" x="3" y="1" width="14" height="9">
<path d="M10.5642 9.99104L9.31404 6.91868C9.22936 6.71052 8.96649 6.54831 8.63077 6.49748L3.67472 5.74704L16.7184 1.85301L10.5642 9.99104Z" fill="white"/>
</mask>
<g mask="url(#mask0_894_632)">
</g>
</svg>
