<svg width="26" height="26" viewBox="0 0 26 26" fill="none" xmlns="http://www.w3.org/2000/svg">
<path d="M22.75 11.9167V10.8334C22.75 6.74816 22.75 4.705 21.4067 3.43641C20.0623 2.16675 17.8988 2.16675 13.5742 2.16675H12.4258C8.10225 2.16675 5.93883 2.16675 4.59333 3.43641C3.25 4.705 3.25 6.74816 3.25 10.8334V15.1667C3.25 19.252 3.25 21.2952 4.59333 22.5637C5.93775 23.8334 8.10117 23.8334 12.4258 23.8334H13M8.66667 7.58341H17.3333M8.66667 13.0001H14.0833" stroke="#FF811A" stroke-width="1.5" stroke-linecap="round" stroke-linejoin="round"/>
<path d="M22.75 22.3677V18.4167C22.75 16.8676 21.2951 15.1667 19.5 15.1667C17.7049 15.1667 16.25 16.8676 16.25 18.4167V22.2084C16.25 23.0534 17.0441 23.8334 18.0223 23.8334C19.0017 23.8334 19.7958 23.0534 19.7958 22.2084V19.2455" stroke="#FF811A" stroke-width="1.5" stroke-linecap="round" stroke-linejoin="round"/>
</svg>
