<svg width="163" height="175" viewBox="0 0 163 175" fill="none" xmlns="http://www.w3.org/2000/svg">
<rect x="12" width="150" height="175" rx="10" fill="#F1F1F1"/>
<path d="M122.76 16.4893L151.101 45.8518V157.51H45.2275V157.875H151.463V46.2213L122.76 16.4893Z" fill="#909090"/>
<path d="M122.408 16.125H44.8657V157.51H151.101V45.8571L122.408 16.125Z" fill="#F4F4F4"/>
<path d="M44.0862 23.7188H11.5371V58.2804H113.921V23.7188H44.0862Z" fill="#7A7B7C"/>
<path d="M114.467 57.6935H12.1997V23.1064H114.467V57.6935Z" fill="#DD2025"/>
<path d="M46.1087 28.9535H39.4512V53.2535H44.6875V45.0573L45.8438 45.1231C46.9677 45.1077 48.0813 44.9076 49.1395 44.5308C50.0697 44.2169 50.9247 43.7154 51.6507 43.0576C52.3952 42.4372 52.9802 41.6493 53.3571 40.7593C53.8728 39.2846 54.0554 37.7152 53.892 36.1625C53.8629 35.0531 53.6672 33.9542 53.3113 32.9023C52.9905 32.1419 52.5136 31.4565 51.911 30.8899C51.3084 30.3232 50.5935 29.8879 49.8119 29.6116C49.138 29.3636 48.4397 29.1871 47.7285 29.0851C47.1913 28.9982 46.6479 28.9542 46.1036 28.9535M45.1409 40.5669H44.6875V33.0744H45.6706C46.1045 33.0433 46.5399 33.1095 46.9446 33.2681C47.3493 33.4267 47.7129 33.6736 48.0087 33.9907C48.6215 34.8058 48.9489 35.798 48.9408 36.8156C48.9408 38.0609 48.9408 39.1899 47.81 39.9847C46.9956 40.4306 46.0681 40.6362 45.1409 40.5669ZM63.84 28.8877C63.2746 28.8877 62.7245 28.9282 62.3374 28.9434L61.1251 28.9738H57.152V53.2738H61.828C63.6148 53.3194 65.3934 53.0185 67.0644 52.3878C68.4097 51.8598 69.6006 51.0052 70.5281 49.9021C71.4371 48.7942 72.0862 47.4989 72.4281 46.1103C72.8299 44.5406 73.0251 42.9257 73.0088 41.306C73.1085 39.3932 72.9596 37.4755 72.5656 35.6006C72.1885 34.222 71.4906 32.9509 70.5281 31.8898C69.7732 31.0317 68.8446 30.3417 67.803 29.8648C66.9107 29.4537 65.9718 29.1511 65.0065 28.9636C64.6227 28.9011 64.2341 28.8723 63.8451 28.8776M62.9181 48.8086H62.4087V33.2971H62.4749C63.5251 33.1764 64.5877 33.3648 65.5312 33.8388C66.2222 34.3872 66.7853 35.0781 67.1815 35.8638C67.6092 36.6907 67.8557 37.5983 67.9049 38.5267C67.9507 39.6404 67.9049 40.5517 67.9049 41.306C67.9237 42.1749 67.8675 43.0438 67.7368 43.9031C67.5765 44.7843 67.2864 45.6372 66.8759 46.4343C66.4121 47.1777 65.7787 47.8021 65.0269 48.2568C64.3989 48.6618 63.6543 48.8504 62.9079 48.7934M88.7841 28.9738H76.4063V53.2738H81.6427V43.6348H88.2646V39.119H81.6427V33.4895H88.774V28.9738" fill="#464648"/>
<path d="M110.947 108.541C110.947 108.541 127.186 105.615 127.186 111.128C127.186 116.641 117.126 114.398 110.947 108.541ZM98.941 108.961C96.3606 109.526 93.8461 110.356 91.4379 111.437L93.4754 106.88C95.5129 102.324 97.6268 96.1125 97.6268 96.1125C100.052 100.183 102.881 104.003 106.072 107.513C103.67 107.869 101.289 108.356 98.941 108.971V108.961ZM92.5127 76.0548C92.5127 71.2505 94.0765 69.9393 95.2939 69.9393C96.5113 69.9393 97.8815 70.5215 97.9274 74.693C97.5301 78.8875 96.6465 83.0223 95.2939 87.0152C93.4348 83.6651 92.4752 79.8957 92.5076 76.07L92.5127 76.0548ZM68.8319 129.292C63.8502 126.331 79.2791 117.213 82.0756 116.919C82.0603 116.924 74.0479 132.39 68.8319 129.292ZM131.928 111.781C131.877 111.275 131.419 105.67 121.384 105.908C117.201 105.836 113.02 106.129 108.889 106.784C104.885 102.778 101.438 98.258 98.6405 93.3433C100.402 88.2772 101.469 82.9986 101.814 77.6495C101.666 71.5745 100.204 68.0915 95.518 68.1421C90.8318 68.1928 90.1492 72.2681 90.7655 78.333C91.3688 82.4086 92.5076 86.388 94.1529 90.1691C94.1529 90.1691 91.988 96.8668 89.1254 103.529C86.2627 110.191 84.3067 113.684 84.3067 113.684C79.3279 115.293 74.6415 117.686 70.4262 120.772C66.229 124.655 64.5225 127.637 66.7332 130.618C68.6383 133.19 75.306 133.772 81.2657 126.012C84.4268 121.999 87.3195 117.785 89.9251 113.396C89.9251 113.396 99.0123 110.92 101.839 110.242C104.666 109.564 108.084 109.027 108.084 109.027C108.084 109.027 116.382 117.324 124.384 117.031C132.387 116.737 131.999 112.277 131.949 111.791" fill="#DD2025"/>
<path d="M122.016 16.5146V46.2467H150.709L122.016 16.5146Z" fill="#909090"/>
<path d="M122.408 16.125V45.8571H151.101L122.408 16.125Z" fill="#F4F4F4"/>
<path d="M45.7166 28.5639H39.0591V52.8639H44.3158V44.6727L45.4772 44.7385C46.6011 44.7232 47.7147 44.523 48.7729 44.1462C49.7031 43.8323 50.558 43.3308 51.2841 42.673C52.023 42.0509 52.6027 41.2631 52.9752 40.3747C53.4909 38.9 53.6735 37.3306 53.51 35.7779C53.481 34.6685 53.2853 33.5696 52.9294 32.5177C52.6086 31.7573 52.1317 31.0719 51.5291 30.5053C50.9265 29.9386 50.2116 29.5033 49.43 29.227C48.753 28.9766 48.0513 28.7984 47.3364 28.6955C46.7992 28.6085 46.2558 28.5645 45.7115 28.5639M44.7488 40.1772H44.2955V32.6847H45.2836C45.7175 32.6536 46.1529 32.7198 46.5576 32.8784C46.9623 33.037 47.3259 33.284 47.6217 33.601C48.2345 34.4162 48.5619 35.4084 48.5538 36.4259C48.5538 37.6713 48.5538 38.8002 47.423 39.595C46.6086 40.0409 45.6811 40.2414 44.7539 40.1722M63.448 28.498C62.8826 28.498 62.3324 28.5385 61.9453 28.5537L60.7483 28.5841H56.7751V52.8841H61.4512C63.238 52.9298 65.0166 52.6289 66.6876 51.9982C68.0329 51.4701 69.2238 50.6156 70.1513 49.5125C71.0603 48.4046 71.7094 47.1092 72.0513 45.7207C72.4531 44.1509 72.6482 42.536 72.632 40.9164C72.7317 39.0035 72.5828 37.0859 72.1888 35.2109C71.8117 33.8323 71.1138 32.5612 70.1513 31.5001C69.3964 30.6421 68.4678 29.952 67.4262 29.4751C66.5339 29.064 65.5949 28.7615 64.6297 28.574C64.2459 28.5114 63.8572 28.4826 63.4683 28.4879M62.5413 48.419H62.0319V32.9075H62.0981C63.1483 32.7868 64.2109 32.9751 65.1544 33.4492C65.8454 33.9976 66.4085 34.6885 66.8047 35.4742C67.2324 36.3011 67.4789 37.2086 67.528 38.137C67.5739 39.2508 67.528 40.162 67.528 40.9164C67.5469 41.7852 67.4906 42.6541 67.36 43.5134C67.1997 44.3946 66.9096 45.2475 66.4991 46.0447C66.0353 46.7881 65.4019 47.4124 64.6501 47.8672C64.0221 48.2722 63.2775 48.4607 62.5311 48.4038M88.3921 28.5841H76.0142V52.8841H81.2506V43.2451H87.8725V38.7294H81.2506V33.0999H88.3819V28.5841" fill="white"/>
</svg>
