<svg width="19" height="20" viewBox="0 0 19 20" fill="none" xmlns="http://www.w3.org/2000/svg">
<path fill-rule="evenodd" clip-rule="evenodd" d="M9.29855 3.52832H2.23523C1.00026 3.52832 0 4.58282 0 5.88178V17.6468C0 18.9469 1.00026 20.0003 2.23523 20.0003H14.529C15.7639 20.0003 16.7642 18.9469 16.7642 17.6468V9.03528L12.3899 13.64C12.0079 14.0461 11.5104 14.3267 10.9638 14.4445L7.96747 15.0756C6.01164 15.4867 4.28828 13.6722 4.67945 11.6143L5.27849 8.45969C5.3869 7.89077 5.65289 7.36741 6.04294 6.95739L9.29855 3.52832Z" fill="url(#paint0_linear_894_667)"/>
<path fill-rule="evenodd" clip-rule="evenodd" d="M18.8274 1.46346C18.7144 1.17903 18.5487 0.918209 18.339 0.694528C18.1328 0.47577 17.8841 0.300768 17.6081 0.180056C17.3361 0.0613126 17.0423 0 16.7453 0C16.4482 0 16.1544 0.0613126 15.8825 0.180056C15.6064 0.300768 15.3578 0.47577 15.1516 0.694528L14.5413 1.33678L17.7288 4.69252L18.339 4.04915C18.5509 3.82717 18.7169 3.5659 18.8274 3.28022C19.0576 2.69626 19.0576 2.04741 18.8274 1.46346ZM16.1496 6.35594L12.961 2.99909L7.6222 8.62161C7.54343 8.70506 7.4903 8.80915 7.46908 8.92163L6.87004 12.0774C6.79181 12.4885 7.13715 12.8507 7.5272 12.7685L10.5246 12.1385C10.6337 12.1143 10.733 12.0582 10.8096 11.9773L16.1496 6.35594Z" fill="url(#paint1_linear_894_667)"/>
<defs>
<linearGradient id="paint0_linear_894_667" x1="8.3821" y1="3.52832" x2="8.3821" y2="20.0003" gradientUnits="userSpaceOnUse">
<stop stop-color="#FF6502"/>
<stop offset="1" stop-color="#FF850B"/>
</linearGradient>
<linearGradient id="paint1_linear_894_667" x1="12.9295" y1="0" x2="12.9295" y2="12.7802" gradientUnits="userSpaceOnUse">
<stop stop-color="#FF6502"/>
<stop offset="1" stop-color="#FF8826"/>
</linearGradient>
</defs>
</svg>
