<svg width="34" height="30" viewBox="0 0 34 30" fill="none" xmlns="http://www.w3.org/2000/svg">
<path fill-rule="evenodd" clip-rule="evenodd" d="M0.571289 15.4287C0.571289 8.32768 6.32743 2.57153 13.4284 2.57153C20.5294 2.57153 26.2856 8.32768 26.2856 15.4287C26.2856 22.5297 20.5294 28.2858 13.4284 28.2858C6.32743 28.2858 0.571289 22.5297 0.571289 15.4287ZM13.4284 5.14296C10.7005 5.14296 8.08428 6.22663 6.15533 8.15558C4.22639 10.0845 3.14272 12.7007 3.14272 15.4287C3.14272 18.1566 4.22639 20.7728 6.15533 22.7018C8.08428 24.6307 10.7005 25.7144 13.4284 25.7144C16.1564 25.7144 18.7726 24.6307 20.7015 22.7018C22.6305 20.7728 23.7141 18.1566 23.7141 15.4287C23.7141 12.7007 22.6305 10.0845 20.7015 8.15558C18.7726 6.22663 16.1564 5.14296 13.4284 5.14296Z" fill="#FF811A"/>
<path fill-rule="evenodd" clip-rule="evenodd" d="M14.7144 9.00007C14.7144 8.65908 14.5789 8.33205 14.3378 8.09093C14.0967 7.84981 13.7696 7.71436 13.4286 7.71436C13.0876 7.71436 12.7606 7.84981 12.5195 8.09093C12.2784 8.33205 12.1429 8.65908 12.1429 9.00007V14.1429H7.00007C6.65908 14.1429 6.33205 14.2784 6.09093 14.5195C5.84981 14.7606 5.71436 15.0876 5.71436 15.4286C5.71436 15.7696 5.84981 16.0967 6.09093 16.3378C6.33205 16.5789 6.65908 16.7144 7.00007 16.7144H12.1429V21.8572C12.1429 22.1982 12.2784 22.5252 12.5195 22.7664C12.7606 23.0075 13.0876 23.1429 13.4286 23.1429C13.7696 23.1429 14.0967 23.0075 14.3378 22.7664C14.5789 22.5252 14.7144 22.1982 14.7144 21.8572V16.7144H19.8572C20.1982 16.7144 20.5252 16.5789 20.7664 16.3378C21.0075 16.0967 21.1429 15.7696 21.1429 15.4286C21.1429 15.0876 21.0075 14.7606 20.7664 14.5195C20.5252 14.2784 20.1982 14.1429 19.8572 14.1429H14.7144V9.00007Z" fill="#FF811A"/>
</svg>
