<svg width="63" height="63" viewBox="0 0 63 63" fill="none" xmlns="http://www.w3.org/2000/svg">
<path d="M31.3447 43.3947V36.8652" stroke="url(#paint0_linear_563_1640)" stroke-width="4" stroke-linecap="round" stroke-linejoin="round"/>
<path fill-rule="evenodd" clip-rule="evenodd" d="M47.2885 14.1921C51.638 14.1921 55.1382 17.7181 55.1382 22.0676V30.9211C48.8069 34.6272 40.4425 36.8663 31.3316 36.8663C22.2208 36.8663 13.882 34.6272 7.55078 30.9211V22.0419C7.55078 17.6923 11.0767 14.1921 15.4263 14.1921H47.2885Z" stroke="url(#paint1_linear_563_1640)" stroke-width="4" stroke-linecap="round" stroke-linejoin="round"/>
<path d="M40.3527 14.1808V13.2389C40.3527 10.099 37.8048 7.55103 34.6649 7.55103H28.0248C24.8849 7.55103 22.3369 10.099 22.3369 13.2389V14.1808" stroke="url(#paint2_linear_563_1640)" stroke-width="4" stroke-linecap="round" stroke-linejoin="round"/>
<path d="M7.61426 40.3223L8.10068 46.7796C8.43012 51.1317 12.0564 54.4955 16.4188 54.4955H46.271C50.6334 54.4955 54.2597 51.1317 54.5891 46.7796L55.0756 40.3223" stroke="url(#paint3_linear_563_1640)" stroke-width="4" stroke-linecap="round" stroke-linejoin="round"/>
<defs>
<linearGradient id="paint0_linear_563_1640" x1="31.8447" y1="36.8652" x2="31.8447" y2="43.3947" gradientUnits="userSpaceOnUse">
<stop stop-color="#CF5406"/>
<stop offset="1" stop-color="#FF811A"/>
</linearGradient>
<linearGradient id="paint1_linear_563_1640" x1="31.3445" y1="14.1921" x2="31.3445" y2="36.8663" gradientUnits="userSpaceOnUse">
<stop stop-color="#CF5406"/>
<stop offset="1" stop-color="#FF811A"/>
</linearGradient>
<linearGradient id="paint2_linear_563_1640" x1="31.3448" y1="7.55103" x2="31.3448" y2="14.1808" gradientUnits="userSpaceOnUse">
<stop stop-color="#CF5406"/>
<stop offset="1" stop-color="#FF811A"/>
</linearGradient>
<linearGradient id="paint3_linear_563_1640" x1="31.3449" y1="40.3223" x2="31.3449" y2="54.4955" gradientUnits="userSpaceOnUse">
<stop stop-color="#CF5406"/>
<stop offset="1" stop-color="#FF811A"/>
</linearGradient>
</defs>
</svg>
