<svg width="83" height="23" viewBox="0 0 83 23" fill="none" xmlns="http://www.w3.org/2000/svg">
<path d="M43.0645 11.7911V12.2628C43.0645 13.0193 42.9619 13.6983 42.7568 14.2999C42.5518 14.9014 42.2624 15.4141 41.8887 15.838C41.515 16.2572 41.0684 16.5785 40.5488 16.8018C40.0339 17.0251 39.4619 17.1368 38.833 17.1368C38.2087 17.1368 37.6367 17.0251 37.1172 16.8018C36.6022 16.5785 36.1556 16.2572 35.7773 15.838C35.3991 15.4141 35.1051 14.9014 34.8955 14.2999C34.6904 13.6983 34.5879 13.0193 34.5879 12.2628V11.7911C34.5879 11.03 34.6904 10.351 34.8955 9.75397C35.1006 9.1524 35.39 8.63971 35.7637 8.21588C36.1419 7.79205 36.5885 7.46849 37.1035 7.24518C37.623 7.02187 38.195 6.91022 38.8193 6.91022C39.4482 6.91022 40.0202 7.02187 40.5352 7.24518C41.0547 7.46849 41.5013 7.79205 41.875 8.21588C42.2533 8.63971 42.5449 9.1524 42.75 9.75397C42.9596 10.351 43.0645 11.03 43.0645 11.7911ZM40.9932 12.2628V11.7774C40.9932 11.2488 40.9453 10.7839 40.8496 10.3829C40.7539 9.98183 40.6126 9.64459 40.4258 9.37115C40.2389 9.09772 40.0111 8.89264 39.7422 8.75592C39.4733 8.61464 39.1657 8.54401 38.8193 8.54401C38.473 8.54401 38.1654 8.61464 37.8965 8.75592C37.6322 8.89264 37.4066 9.09772 37.2197 9.37115C37.0374 9.64459 36.8984 9.98183 36.8027 10.3829C36.707 10.7839 36.6592 11.2488 36.6592 11.7774V12.2628C36.6592 12.7868 36.707 13.2517 36.8027 13.6573C36.8984 14.0583 37.0397 14.3978 37.2266 14.6758C37.4134 14.9493 37.6413 15.1566 37.9102 15.2979C38.179 15.4392 38.4867 15.5098 38.833 15.5098C39.1794 15.5098 39.487 15.4392 39.7559 15.2979C40.0247 15.1566 40.2503 14.9493 40.4326 14.6758C40.6149 14.3978 40.7539 14.0583 40.8496 13.6573C40.9453 13.2517 40.9932 12.7868 40.9932 12.2628ZM48.793 15.2296V9.60358H50.7617V17.0001H48.9092L48.793 15.2296ZM49.0117 13.712L49.5928 13.6983C49.5928 14.1905 49.5358 14.6485 49.4219 15.0723C49.3079 15.4916 49.137 15.8562 48.9092 16.1661C48.6813 16.4714 48.3942 16.7107 48.0479 16.8839C47.7015 17.0525 47.2936 17.1368 46.8242 17.1368C46.4642 17.1368 46.1315 17.0866 45.8262 16.9864C45.5254 16.8816 45.2656 16.7198 45.0469 16.501C44.8327 16.2777 44.6641 15.9929 44.541 15.6465C44.4225 15.2956 44.3633 14.8741 44.3633 14.3819V9.60358H46.332V14.3956C46.332 14.6143 46.3571 14.7989 46.4072 14.9493C46.4619 15.0997 46.5371 15.2227 46.6328 15.3184C46.7285 15.4141 46.8402 15.4825 46.9678 15.5235C47.0999 15.5645 47.2458 15.585 47.4053 15.585C47.8109 15.585 48.1299 15.503 48.3623 15.3389C48.5993 15.1749 48.7656 14.9516 48.8613 14.669C48.9616 14.3819 49.0117 14.0629 49.0117 13.712ZM55.8887 9.60358V10.9981H51.582V9.60358H55.8887ZM52.6484 7.77838H54.6172V14.7715C54.6172 14.9857 54.6445 15.1498 54.6992 15.2637C54.7585 15.3777 54.8451 15.4574 54.959 15.503C55.0729 15.544 55.2165 15.5645 55.3896 15.5645C55.5127 15.5645 55.6221 15.56 55.7178 15.5508C55.818 15.5372 55.9023 15.5235 55.9707 15.5098L55.9775 16.959C55.8089 17.0137 55.6266 17.057 55.4307 17.0889C55.2347 17.1208 55.0182 17.1368 54.7812 17.1368C54.3483 17.1368 53.9701 17.0661 53.6465 16.9249C53.3275 16.779 53.0814 16.5466 52.9082 16.2276C52.735 15.9086 52.6484 15.4893 52.6484 14.9698V7.77838ZM61.0088 14.9561C61.0088 14.8148 60.9678 14.6872 60.8857 14.5733C60.8037 14.4594 60.651 14.3546 60.4277 14.2589C60.209 14.1586 59.8923 14.0674 59.4775 13.9854C59.1038 13.9034 58.7552 13.8008 58.4316 13.6778C58.1126 13.5502 57.8346 13.3975 57.5977 13.2198C57.3652 13.0421 57.1829 12.8324 57.0508 12.5909C56.9186 12.3448 56.8525 12.0645 56.8525 11.7501C56.8525 11.4402 56.9186 11.1485 57.0508 10.8751C57.1875 10.6016 57.3812 10.3601 57.6318 10.1505C57.887 9.93626 58.1969 9.76992 58.5615 9.65143C58.9307 9.52838 59.3454 9.46686 59.8057 9.46686C60.4482 9.46686 60.9997 9.5694 61.46 9.77448C61.9248 9.97955 62.2803 10.2621 62.5264 10.6221C62.777 10.9776 62.9023 11.3832 62.9023 11.8389H60.9336C60.9336 11.6475 60.8926 11.4766 60.8105 11.3262C60.7331 11.1713 60.61 11.0505 60.4414 10.9639C60.2773 10.8728 60.0632 10.8272 59.7988 10.8272C59.5801 10.8272 59.391 10.8659 59.2314 10.9434C59.0719 11.0163 58.9489 11.1166 58.8623 11.2442C58.7803 11.3672 58.7393 11.504 58.7393 11.6544C58.7393 11.7683 58.762 11.8708 58.8076 11.962C58.8577 12.0486 58.9375 12.1283 59.0469 12.2012C59.1562 12.2741 59.2975 12.3425 59.4707 12.4063C59.6484 12.4656 59.8672 12.5202 60.127 12.5704C60.6602 12.6797 61.1364 12.8233 61.5557 13.001C61.9749 13.1742 62.3076 13.4112 62.5537 13.712C62.7998 14.0082 62.9229 14.3978 62.9229 14.8809C62.9229 15.209 62.8499 15.5098 62.7041 15.7833C62.5583 16.0567 62.3486 16.296 62.0752 16.501C61.8018 16.7016 61.4736 16.8588 61.0908 16.9727C60.7126 17.0821 60.2865 17.1368 59.8125 17.1368C59.1243 17.1368 58.541 17.0137 58.0625 16.7676C57.5885 16.5215 57.2285 16.2094 56.9824 15.8311C56.7409 15.4483 56.6201 15.0564 56.6201 14.6553H58.4863C58.4954 14.9242 58.5638 15.1407 58.6914 15.3047C58.8236 15.4688 58.9899 15.5873 59.1904 15.6602C59.3955 15.7331 59.6165 15.7696 59.8535 15.7696C60.1087 15.7696 60.3206 15.7354 60.4893 15.6671C60.6579 15.5941 60.7855 15.4984 60.8721 15.3799C60.9632 15.2569 61.0088 15.1156 61.0088 14.9561ZM66.2793 9.60358V17.0001H64.3037V9.60358H66.2793ZM64.1807 7.67584C64.1807 7.38873 64.2809 7.15175 64.4814 6.9649C64.682 6.77806 64.9508 6.68463 65.2881 6.68463C65.6208 6.68463 65.8874 6.77806 66.0879 6.9649C66.293 7.15175 66.3955 7.38873 66.3955 7.67584C66.3955 7.96295 66.293 8.19993 66.0879 8.38678C65.8874 8.57363 65.6208 8.66705 65.2881 8.66705C64.9508 8.66705 64.682 8.57363 64.4814 8.38678C64.2809 8.19993 64.1807 7.96295 64.1807 7.67584ZM72.2744 15.3868V6.50006H74.2568V17.0001H72.4727L72.2744 15.3868ZM67.5986 13.3907V13.2471C67.5986 12.682 67.6624 12.1693 67.79 11.709C67.9176 11.2442 68.1045 10.8454 68.3506 10.5128C68.5967 10.1801 68.8997 9.92259 69.2598 9.7403C69.6198 9.558 70.0299 9.46686 70.4902 9.46686C70.9232 9.46686 71.3014 9.558 71.625 9.7403C71.9531 9.92259 72.2311 10.1824 72.459 10.5196C72.6914 10.8523 72.8783 11.2465 73.0195 11.7022C73.1608 12.1534 73.2633 12.6478 73.3271 13.1856V13.5001C73.2633 14.015 73.1608 14.4936 73.0195 14.9356C72.8783 15.3777 72.6914 15.765 72.459 16.0977C72.2311 16.4258 71.9531 16.6811 71.625 16.8633C71.2969 17.0456 70.9141 17.1368 70.4766 17.1368C70.0163 17.1368 69.6061 17.0434 69.2461 16.8565C68.8906 16.6697 68.5898 16.4076 68.3438 16.0704C68.1022 15.7331 67.9176 15.3366 67.79 14.8809C67.6624 14.4252 67.5986 13.9284 67.5986 13.3907ZM69.5674 13.2471V13.3907C69.5674 13.696 69.5902 13.9809 69.6357 14.2452C69.6859 14.5095 69.7656 14.7442 69.875 14.9493C69.9889 15.1498 70.1348 15.307 70.3125 15.421C70.4948 15.5303 70.7158 15.585 70.9756 15.585C71.3128 15.585 71.5908 15.5098 71.8096 15.3594C72.0283 15.2045 72.1947 14.9926 72.3086 14.7237C72.4271 14.4548 72.4954 14.1449 72.5137 13.794V12.8985C72.5 12.6114 72.459 12.3539 72.3906 12.126C72.3268 11.8936 72.2311 11.6954 72.1035 11.5313C71.9805 11.3672 71.8255 11.2396 71.6387 11.1485C71.4564 11.0574 71.2399 11.0118 70.9893 11.0118C70.734 11.0118 70.5153 11.071 70.333 11.1895C70.1507 11.3034 70.0026 11.4607 69.8887 11.6612C69.7793 11.8617 69.6973 12.0987 69.6426 12.3721C69.5924 12.641 69.5674 12.9327 69.5674 13.2471ZM79.1992 17.1368C78.625 17.1368 78.11 17.0456 77.6543 16.8633C77.1986 16.6765 76.8112 16.419 76.4922 16.0909C76.1777 15.7628 75.9362 15.3822 75.7676 14.9493C75.599 14.5118 75.5146 14.0469 75.5146 13.5547V13.2813C75.5146 12.7208 75.5944 12.2081 75.7539 11.7432C75.9134 11.2784 76.1413 10.8751 76.4375 10.5333C76.7383 10.1915 77.1029 9.92942 77.5312 9.74713C77.9596 9.56028 78.4427 9.46686 78.9805 9.46686C79.5046 9.46686 79.9694 9.55345 80.375 9.72662C80.7806 9.8998 81.1201 10.1459 81.3936 10.4649C81.6715 10.7839 81.8812 11.1667 82.0225 11.6133C82.1637 12.0554 82.2344 12.5476 82.2344 13.0899V13.9102H76.3555V12.5977H80.2998V12.4473C80.2998 12.1739 80.2497 11.9301 80.1494 11.7159C80.0537 11.4971 79.9079 11.324 79.7119 11.1964C79.516 11.0687 79.2653 11.0049 78.96 11.0049C78.7002 11.0049 78.4769 11.0619 78.29 11.1758C78.1032 11.2898 77.9505 11.4493 77.832 11.6544C77.7181 11.8594 77.6315 12.101 77.5723 12.379C77.5176 12.6524 77.4902 12.9532 77.4902 13.2813V13.5547C77.4902 13.851 77.5312 14.1244 77.6133 14.3751C77.6999 14.6257 77.8206 14.8422 77.9756 15.0245C78.1351 15.2068 78.3265 15.348 78.5498 15.4483C78.7777 15.5486 79.0352 15.5987 79.3223 15.5987C79.6777 15.5987 80.0081 15.5303 80.3135 15.3936C80.6234 15.2523 80.89 15.0404 81.1133 14.7579L82.0703 15.7969C81.9154 16.0202 81.7035 16.2344 81.4346 16.4395C81.1702 16.6446 80.8512 16.8132 80.4775 16.9454C80.1038 17.073 79.6777 17.1368 79.1992 17.1368Z" fill="#2D3748"/>
<path d="M20.8795 0H1.1219C0.502293 0 0 0.502293 0 1.1219V10.5297C0 11.1493 0.502293 11.6516 1.1219 11.6516H5.17558V20.8795C5.17522 21.1769 5.29311 21.4623 5.50329 21.6727C5.71347 21.8831 5.99869 22.0014 6.29611 22.0014H15.7039C16.3235 22.0014 16.8258 21.4991 16.8258 20.8795V11.6557H20.8795C21.1769 11.6557 21.4621 11.5375 21.6723 11.327C21.8825 11.1166 22.0004 10.8312 22 10.5338V1.1219C22.0004 0.824482 21.8825 0.539118 21.6723 0.328681C21.4621 0.118244 21.1769 0 20.8795 0ZM1.30042 1.30179H10.3498V10.3512H1.30042V1.30179ZM15.5254 20.701H6.476V11.6557H15.5254V20.701ZM20.6996 10.3512H11.6502V1.30179H20.6996V10.3512Z" fill="#2D3748"/>
<path d="M7.44831 7.32455C7.70457 7.56505 8.10548 7.55869 8.35399 7.31018C8.60249 7.06167 8.60885 6.66077 8.36835 6.40451L6.2907 4.32686C6.03594 4.07448 5.62542 4.07448 5.37066 4.32686L3.28752 6.40451C3.11436 6.56701 3.04345 6.81092 3.10248 7.04093C3.16151 7.27094 3.34112 7.45055 3.57114 7.50959C3.80115 7.56862 4.04506 7.4977 4.20756 7.32455L5.82519 5.70692L7.44831 7.32455Z" fill="#2D3748"/>
<path d="M14.5573 7.32455L16.1749 5.70692L17.7925 7.32455C18.0488 7.56505 18.4497 7.55869 18.6982 7.31018C18.9467 7.06167 18.9531 6.66077 18.7126 6.40451L16.6349 4.32686C16.3801 4.07448 15.9696 4.07448 15.7149 4.32686L13.6372 6.40451C13.3967 6.66077 13.4031 7.06167 13.6516 7.31018C13.9001 7.55869 14.301 7.56505 14.5573 7.32455Z" fill="#2D3748"/>
<path d="M9.38152 14.6767C9.1249 14.4366 8.72399 14.4435 8.47585 14.6924C8.2277 14.9413 8.22195 15.3422 8.46285 15.5981L10.5405 17.6744C10.6624 17.7966 10.8279 17.8654 11.0005 17.8654C11.1731 17.8654 11.3387 17.7966 11.4605 17.6744L13.5382 15.5981C13.7028 15.4338 13.7672 15.1941 13.7072 14.9694C13.6471 14.7446 13.4718 14.569 13.2471 14.5087C13.0225 14.4483 12.7827 14.5123 12.6181 14.6767L11.0005 16.2957L9.38152 14.6767Z" fill="#2D3748"/>
</svg>
